<svg id="Layer_1" data-name="Layer 1" xmlns="http://www.w3.org/2000/svg" viewBox="0 0 407.66 118.71"><title>Logo Chat via WA 1</title><circle cx="59.36" cy="59.36" r="59.36" style="fill:#32ba46"/><path d="M152.41,212.31a37.4,37.4,0,0,0-29.48,60.45l-2.5,12.89,12.16-4.19a37.42,37.42,0,1,0,19.82-69.15Z" transform="translate(-93.06 -190.39)" style="fill:none"/><path d="M152.41,290.19a40.25,40.25,0,0,1-20.17-5.43l-15.75,5.43,3.23-16.69A40,40,0,0,1,112,249.75a40.45,40.45,0,1,1,40.44,40.44Zm-19.44-12,1.22.76a34.45,34.45,0,1,0-8.89-8l.85,1.08-1.77,9.12Z" transform="translate(-93.06 -190.39)" style="fill:#fff"/><path d="M132,234.21s2.37-4.15,4.31-4.39,4.42-.23,5.09,1,3.67,8.61,3.67,8.61a2.88,2.88,0,0,1-.27,2.49,24.05,24.05,0,0,1-2.57,3,2.2,2.2,0,0,0,0,2.61,48,48,0,0,0,5.69,7c3.17,3.17,9.24,5.43,9.24,5.43a1.9,1.9,0,0,0,1.43-.44c.55-.55,3.55-4.3,3.55-4.3a2.11,2.11,0,0,1,2.57-.52c1.6.73,8.53,4.19,8.53,4.19a1.51,1.51,0,0,1,.81,1.52c0,1.23-.49,4.22-1.51,5.23s-4,4.14-8.42,4.14-15.06-3.62-20.7-9.27-10.67-11.38-11.85-16.59S130.54,236.36,132,234.21Z" transform="translate(-93.06 -190.39)" style="fill:#fff"/><path d="M461.82,301.82h-268s27-12.43,27-51.3c0-34.63-27-52.84-27-52.84h268a38.89,38.89,0,0,1,38.89,38.89v26.36A38.89,38.89,0,0,1,461.82,301.82Z" transform="translate(-93.06 -190.39)" style="fill:#32ba46"/><text transform="translate(138.3 42.75)" style="font-size:27px;fill:#fff;font-family:Roboto-Regular, Roboto">Chat via</text><text transform="translate(138.3 93.04)" style="font-size:45px;fill:#fff;font-family:Roboto-Regular, Roboto">Whatsapp</text></svg>